<svg xmlns="http://www.w3.org/2000/svg" width="600" height="500" viewBox="0 0 600 500" preserveAspectRatio="xMidYMid slice" role="img" aria-label="Crystal table lamp, galaxy projector and tea lights">
<title>Crystal table lamp, galaxy projector and tea lights</title>
<defs><radialGradient id="h3mg0"><stop offset="0" stop-color="#FFC857" stop-opacity="0.5"/><stop offset="1" stop-color="#FFC857" stop-opacity="0"/></radialGradient><radialGradient id="h3mbg" cx="50%" cy="32%" r="78%"><stop offset="0" stop-color="#FFFFFF"/><stop offset="1" stop-color="#FBEDEF"/></radialGradient><linearGradient id="h3mflame" x1="0" y1="1" x2="0" y2="0"><stop offset="0" stop-color="#F59E0B"/><stop offset="0.6" stop-color="#FFD166"/><stop offset="1" stop-color="#FFF4CF"/></linearGradient><linearGradient id="h3mgold" x1="0" y1="0" x2="1" y2="1"><stop offset="0" stop-color="#FFD166"/><stop offset="1" stop-color="#F59E0B"/></linearGradient><linearGradient id="h3mpw" x1="0" y1="0" x2="1" y2="1"><stop offset="0" stop-color="#ED1857"/><stop offset="1" stop-color="#90002A"/></linearGradient><radialGradient id="h3mhalo"><stop offset="0" stop-color="#FFD166" stop-opacity="0.85"/><stop offset="0.45" stop-color="#ED1857" stop-opacity="0.35"/><stop offset="1" stop-color="#9B4DE0" stop-opacity="0"/></radialGradient><linearGradient id="h3mvisor" x1="0" y1="0" x2="1" y2="1"><stop offset="0" stop-color="#9B4DE0"/><stop offset="0.5" stop-color="#ED1857"/><stop offset="1" stop-color="#4A041C"/></linearGradient></defs><rect width="600" height="500" fill="url(#h3mbg)"/><path d="M600 0v210A210 210 0 0 0 390 0Z" fill="url(#h3mpw)"/><circle cx="76" cy="104" r="46" fill="#ED1857" opacity="0.08"/><circle cx="540" cy="430" r="30" fill="#90002A" opacity="0.07"/><path d="M524 52l4 10.4 10.4 4-10.4 4-4 10.4-4-10.4-10.4-4 10.4-4Z" fill="#FFD166" opacity="0.9"/><path d="M458 34l2.6 6.76 6.76 2.6-6.76 2.6-2.6 6.76-2.6-6.76-6.76-2.6 6.76-2.6Z" fill="#FFFFFF" opacity="0.8"/><g transform="translate(0,28)"><ellipse cx="300" cy="372" rx="240" ry="17" fill="#4A041C" opacity="0.08"/><circle cx="168" cy="232" r="170" fill="url(#h3mhalo)"/><ellipse cx="168" cy="358" rx="55" ry="12" fill="#C99A4A"/><rect x="113" y="344" width="110" height="14" fill="url(#h3mgold)"/><rect x="161.8" y="282" width="12.4" height="62" fill="url(#h3mgold)"/><path d="M123 176H213L238 208L168 288L98 208Z" fill="#FFFFFF" fill-opacity="0.9" stroke="#ED1857" stroke-width="2.5" stroke-linejoin="round"/><path d="M98 208H238" stroke="#ED1857" stroke-opacity="0.55" stroke-width="1.6"/><path d="M123 176L151.8 208" stroke="#ED1857" stroke-opacity="0.55" stroke-width="1.6"/><path d="M151.8 208L168 176" stroke="#ED1857" stroke-opacity="0.55" stroke-width="1.6"/><path d="M168 176L184.2 208" stroke="#ED1857" stroke-opacity="0.55" stroke-width="1.6"/><path d="M184.2 208L213 176" stroke="#ED1857" stroke-opacity="0.55" stroke-width="1.6"/><path d="M151.8 208L168 288" stroke="#ED1857" stroke-opacity="0.55" stroke-width="1.6"/><path d="M184.2 208L168 288" stroke="#ED1857" stroke-opacity="0.55" stroke-width="1.6"/><path d="M98 208L168 288" stroke="#ED1857" stroke-opacity="0.55" stroke-width="1.6"/><path d="M238 208L168 288" stroke="#ED1857" stroke-opacity="0.55" stroke-width="1.6"/><path d="M151.8 208L168 176L184.2 208Z" fill="#9B4DE0" opacity="0.25"/><path d="M98 208L151.8 208L168 288Z" fill="#F59E0B" opacity="0.22"/><path d="M184.2 208L238 208L168 288Z" fill="#ED1857" opacity="0.2"/><ellipse cx="430" cy="357" rx="62" ry="10" fill="#4A041C" opacity="0.12"/><rect x="376" y="340" width="108" height="17" rx="8" fill="url(#h3mpw)"/><rect x="390" y="282" width="80" height="60" rx="23" fill="#F7F4F5" stroke="#D9CFD3" stroke-width="2"/><rect x="414" y="297" width="32" height="20" rx="4.5" fill="#ED1857" opacity="0.85"/><circle cx="422" cy="307" r="2.9" fill="#FFD166"/><circle cx="438" cy="307" r="2.9" fill="#FFFFFF"/><circle cx="430" cy="224" r="57" fill="#FFFFFF" stroke="#D9CFD3" stroke-width="2.5"/><ellipse cx="430" cy="227" rx="39" ry="30" fill="url(#h3mvisor)"/><ellipse cx="416" cy="216" rx="10.3" ry="5.7" fill="#FFFFFF" opacity="0.6" transform="rotate(-25 416 216)"/><path d="M441,221L442.23,224.3L445.76,224.45L443,226.65L443.94,230.05L441,228.1L438.06,230.05L439,226.65L436.24,224.45L439.77,224.3Z" fill="#FFE7A8"/><path d="M449,208.6L450.09,211.5L453.18,211.64L450.76,213.57L451.59,216.56L449,214.85L446.41,216.56L447.24,213.57L444.82,211.64L447.91,211.5Z" fill="#FFE7A8"/><path d="M427,234.6L428.09,237.5L431.18,237.64L428.76,239.57L429.59,242.56L427,240.85L424.41,242.56L425.24,239.57L422.82,237.64L425.91,237.5Z" fill="#FFE7A8"/><path d="M436,200.6L437.09,203.5L440.18,203.64L437.76,205.57L438.59,208.56L436,206.85L433.41,208.56L434.24,205.57L431.82,203.64L434.91,203.5Z" fill="#FFE7A8"/><rect x="242" y="352" width="100" height="46" rx="6" fill="#F5ECE2" stroke="#D9C3AA" stroke-width="2"/><rect x="242" y="352" width="25" height="46" fill="#FFFFFF" opacity="0.45"/><ellipse cx="292" cy="398" rx="50" ry="11" fill="#E4D8CA"/><ellipse cx="292" cy="352" rx="50" ry="11" fill="#FFFFFF"/><ellipse cx="292" cy="352" rx="35" ry="7" fill="#F1E6D6"/><circle cx="292" cy="338" r="34" fill="url(#h3mg0)"/><path d="M292 351 C305 339.2 296.6 326.2 292 317.1 C287.4 326.2 279 339.2 292 351Z" fill="url(#h3mflame)"/><ellipse cx="292" cy="341.7" rx="3.7" ry="7.2" fill="#FFFFFF" opacity="0.7"/></g><path d="M66 326l5 13 13 5-13 5-5 13-5-13-13-5 13-5Z" fill="#F59E0B" opacity="0.8"/><path d="M544 300l4 10.4 10.4 4-10.4 4-4 10.4-4-10.4-10.4-4 10.4-4Z" fill="#ED1857" opacity="0.7"/>
</svg>
