<svg xmlns="http://www.w3.org/2000/svg" width="900" height="700" viewBox="0 0 900 700" preserveAspectRatio="xMidYMid slice" role="img" aria-label="Star curtain lights across a wall">
<title>Star curtain lights across a wall</title>
<defs><radialGradient id="h2g0"><stop offset="0" stop-color="#FFC857" stop-opacity="0.5"/><stop offset="1" stop-color="#FFC857" stop-opacity="0"/></radialGradient><radialGradient id="h2g1"><stop offset="0" stop-color="#ED1857" stop-opacity="0.5"/><stop offset="1" stop-color="#ED1857" stop-opacity="0"/></radialGradient><radialGradient id="h2g2"><stop offset="0" stop-color="#F59E0B" stop-opacity="0.5"/><stop offset="1" stop-color="#F59E0B" stop-opacity="0"/></radialGradient><radialGradient id="h2g3"><stop offset="0" stop-color="#22A55B" stop-opacity="0.5"/><stop offset="1" stop-color="#22A55B" stop-opacity="0"/></radialGradient><radialGradient id="h2g4"><stop offset="0" stop-color="#2F7DE1" stop-opacity="0.5"/><stop offset="1" stop-color="#2F7DE1" stop-opacity="0"/></radialGradient><radialGradient id="h2g5"><stop offset="0" stop-color="#9B4DE0" stop-opacity="0.5"/><stop offset="1" stop-color="#9B4DE0" stop-opacity="0"/></radialGradient><radialGradient id="h2g6"><stop offset="0" stop-color="#FF6B3D" stop-opacity="0.5"/><stop offset="1" stop-color="#FF6B3D" stop-opacity="0"/></radialGradient><radialGradient id="h2bg" cx="50%" cy="34%" r="76%"><stop offset="0" stop-color="#FFFFFF"/><stop offset="1" stop-color="#FBEDEF"/></radialGradient><linearGradient id="h2flame" x1="0" y1="1" x2="0" y2="0"><stop offset="0" stop-color="#F59E0B"/><stop offset="0.6" stop-color="#FFD166"/><stop offset="1" stop-color="#FFF4CF"/></linearGradient><linearGradient id="h2diya" x1="0" y1="0" x2="0" y2="1"><stop offset="0" stop-color="#ED1857"/><stop offset="1" stop-color="#90002A"/></linearGradient><linearGradient id="h2gold" x1="0" y1="0" x2="1" y2="1"><stop offset="0" stop-color="#FFD166"/><stop offset="1" stop-color="#F59E0B"/></linearGradient><linearGradient id="h2pw" x1="0" y1="0" x2="1" y2="1"><stop offset="0" stop-color="#ED1857"/><stop offset="1" stop-color="#90002A"/></linearGradient><radialGradient id="h2halo"><stop offset="0" stop-color="#FFD166" stop-opacity="0.85"/><stop offset="0.45" stop-color="#ED1857" stop-opacity="0.35"/><stop offset="1" stop-color="#9B4DE0" stop-opacity="0"/></radialGradient><linearGradient id="h2visor" x1="0" y1="0" x2="1" y2="1"><stop offset="0" stop-color="#9B4DE0"/><stop offset="0.5" stop-color="#ED1857"/><stop offset="1" stop-color="#4A041C"/></linearGradient></defs><rect width="900" height="700" fill="url(#h2bg)"/><path d="M900 0v340A340 340 0 0 0 560 0Z" fill="url(#h2pw)"/><path d="M800 78l5 13 13 5-13 5-5 13-5-13-13-5 13-5Z" fill="#FFD166" opacity="0.9"/><path d="M706 50l2.8 7.2 7.2 2.8-7.2 2.8-2.8 7.2-2.8-7.2-7.2-2.8 7.2-2.8Z" fill="#FFFFFF" opacity="0.8"/><circle cx="120" cy="150" r="58" fill="#ED1857" opacity="0.08"/><circle cx="806" cy="596" r="34" fill="#90002A" opacity="0.07"/><ellipse cx="450" cy="560" rx="330" ry="26" fill="#4A041C" opacity="0.08"/><path d="M186 130H714" stroke="#8A5A3C" stroke-width="4" stroke-linecap="round"/><path d="M200 130V362" stroke="#8A5A3C" stroke-width="1.6" opacity="0.8"/><circle cx="200" cy="160" r="11.4" fill="url(#h2g0)"/><circle cx="200" cy="160" r="4.4" fill="#FFC857" stroke="#C9821E" stroke-opacity="0.55" stroke-width="1"/><circle cx="198.6" cy="158.6" r="1.7" fill="#FFFFFF" opacity="0.75"/><circle cx="200" cy="190" r="11.4" fill="url(#h2g0)"/><circle cx="200" cy="190" r="4.4" fill="#FFC857" stroke="#C9821E" stroke-opacity="0.55" stroke-width="1"/><circle cx="198.6" cy="188.6" r="1.7" fill="#FFFFFF" opacity="0.75"/><circle cx="200" cy="220" r="11.4" fill="url(#h2g0)"/><circle cx="200" cy="220" r="4.4" fill="#FFC857" stroke="#C9821E" stroke-opacity="0.55" stroke-width="1"/><circle cx="198.6" cy="218.6" r="1.7" fill="#FFFFFF" opacity="0.75"/><circle cx="200" cy="250" r="11.4" fill="url(#h2g0)"/><circle cx="200" cy="250" r="4.4" fill="#FFC857" stroke="#C9821E" stroke-opacity="0.55" stroke-width="1"/><circle cx="198.6" cy="248.6" r="1.7" fill="#FFFFFF" opacity="0.75"/><circle cx="200" cy="280" r="11.4" fill="url(#h2g0)"/><circle cx="200" cy="280" r="4.4" fill="#FFC857" stroke="#C9821E" stroke-opacity="0.55" stroke-width="1"/><circle cx="198.6" cy="278.6" r="1.7" fill="#FFFFFF" opacity="0.75"/><circle cx="200" cy="310" r="11.4" fill="url(#h2g0)"/><circle cx="200" cy="310" r="4.4" fill="#FFC857" stroke="#C9821E" stroke-opacity="0.55" stroke-width="1"/><circle cx="198.6" cy="308.6" r="1.7" fill="#FFFFFF" opacity="0.75"/><circle cx="200" cy="340" r="11.4" fill="url(#h2g0)"/><circle cx="200" cy="340" r="4.4" fill="#FFC857" stroke="#C9821E" stroke-opacity="0.55" stroke-width="1"/><circle cx="198.6" cy="338.6" r="1.7" fill="#FFFFFF" opacity="0.75"/><circle cx="200" cy="390" r="53.2" fill="url(#h2g0)"/><path d="M200,362 L207.6,379.6 L226.6,381.3 L212.2,394 L216.5,412.7 L200,402.9 L183.5,412.7 L187.8,394 L173.4,381.3 L192.4,379.6 Z" fill="#FFC857" stroke="#C77800" stroke-opacity="0.6" stroke-width="2" stroke-linejoin="round"/><path d="M200,377.4 L203.4,385.3 L212,386.1 L205.5,391.8 L207.4,400.2 L200,395.8 L192.6,400.2 L194.5,391.8 L188,386.1 L196.6,385.3 Z" fill="#FFFFFF" opacity="0.6"/><path d="M283.3 130V442" stroke="#8A5A3C" stroke-width="1.6" opacity="0.8"/><circle cx="283.3" cy="160" r="11.4" fill="url(#h2g1)"/><circle cx="283.3" cy="160" r="4.4" fill="#ED1857" stroke="#C9821E" stroke-opacity="0.55" stroke-width="1"/><circle cx="281.9" cy="158.6" r="1.7" fill="#FFFFFF" opacity="0.75"/><circle cx="283.3" cy="190" r="11.4" fill="url(#h2g1)"/><circle cx="283.3" cy="190" r="4.4" fill="#ED1857" stroke="#C9821E" stroke-opacity="0.55" stroke-width="1"/><circle cx="281.9" cy="188.6" r="1.7" fill="#FFFFFF" opacity="0.75"/><circle cx="283.3" cy="220" r="11.4" fill="url(#h2g1)"/><circle cx="283.3" cy="220" r="4.4" fill="#ED1857" stroke="#C9821E" stroke-opacity="0.55" stroke-width="1"/><circle cx="281.9" cy="218.6" r="1.7" fill="#FFFFFF" opacity="0.75"/><circle cx="283.3" cy="250" r="11.4" fill="url(#h2g1)"/><circle cx="283.3" cy="250" r="4.4" fill="#ED1857" stroke="#C9821E" stroke-opacity="0.55" stroke-width="1"/><circle cx="281.9" cy="248.6" r="1.7" fill="#FFFFFF" opacity="0.75"/><circle cx="283.3" cy="280" r="11.4" fill="url(#h2g1)"/><circle cx="283.3" cy="280" r="4.4" fill="#ED1857" stroke="#C9821E" stroke-opacity="0.55" stroke-width="1"/><circle cx="281.9" cy="278.6" r="1.7" fill="#FFFFFF" opacity="0.75"/><circle cx="283.3" cy="310" r="11.4" fill="url(#h2g1)"/><circle cx="283.3" cy="310" r="4.4" fill="#ED1857" stroke="#C9821E" stroke-opacity="0.55" stroke-width="1"/><circle cx="281.9" cy="308.6" r="1.7" fill="#FFFFFF" opacity="0.75"/><circle cx="283.3" cy="340" r="11.4" fill="url(#h2g1)"/><circle cx="283.3" cy="340" r="4.4" fill="#ED1857" stroke="#C9821E" stroke-opacity="0.55" stroke-width="1"/><circle cx="281.9" cy="338.6" r="1.7" fill="#FFFFFF" opacity="0.75"/><circle cx="283.3" cy="370" r="11.4" fill="url(#h2g1)"/><circle cx="283.3" cy="370" r="4.4" fill="#ED1857" stroke="#C9821E" stroke-opacity="0.55" stroke-width="1"/><circle cx="281.9" cy="368.6" r="1.7" fill="#FFFFFF" opacity="0.75"/><circle cx="283.3" cy="400" r="11.4" fill="url(#h2g1)"/><circle cx="283.3" cy="400" r="4.4" fill="#ED1857" stroke="#C9821E" stroke-opacity="0.55" stroke-width="1"/><circle cx="281.9" cy="398.6" r="1.7" fill="#FFFFFF" opacity="0.75"/><circle cx="283.3" cy="470" r="53.2" fill="url(#h2g1)"/><path d="M283.3,442 L290.9,459.6 L310,461.3 L295.6,474 L299.8,492.7 L283.3,482.9 L266.9,492.7 L271.1,474 L256.7,461.3 L275.8,459.6 Z" fill="#ED1857" stroke="#C77800" stroke-opacity="0.6" stroke-width="2" stroke-linejoin="round"/><path d="M283.3,457.4 L286.7,465.3 L295.3,466.1 L288.8,471.8 L290.7,480.2 L283.3,475.8 L275.9,480.2 L277.8,471.8 L271.4,466.1 L279.9,465.3 Z" fill="#FFFFFF" opacity="0.6"/><path d="M366.7 130V392" stroke="#8A5A3C" stroke-width="1.6" opacity="0.8"/><circle cx="366.7" cy="160" r="11.4" fill="url(#h2g0)"/><circle cx="366.7" cy="160" r="4.4" fill="#FFC857" stroke="#C9821E" stroke-opacity="0.55" stroke-width="1"/><circle cx="365.3" cy="158.6" r="1.7" fill="#FFFFFF" opacity="0.75"/><circle cx="366.7" cy="190" r="11.4" fill="url(#h2g0)"/><circle cx="366.7" cy="190" r="4.4" fill="#FFC857" stroke="#C9821E" stroke-opacity="0.55" stroke-width="1"/><circle cx="365.3" cy="188.6" r="1.7" fill="#FFFFFF" opacity="0.75"/><circle cx="366.7" cy="220" r="11.4" fill="url(#h2g0)"/><circle cx="366.7" cy="220" r="4.4" fill="#FFC857" stroke="#C9821E" stroke-opacity="0.55" stroke-width="1"/><circle cx="365.3" cy="218.6" r="1.7" fill="#FFFFFF" opacity="0.75"/><circle cx="366.7" cy="250" r="11.4" fill="url(#h2g0)"/><circle cx="366.7" cy="250" r="4.4" fill="#FFC857" stroke="#C9821E" stroke-opacity="0.55" stroke-width="1"/><circle cx="365.3" cy="248.6" r="1.7" fill="#FFFFFF" opacity="0.75"/><circle cx="366.7" cy="280" r="11.4" fill="url(#h2g0)"/><circle cx="366.7" cy="280" r="4.4" fill="#FFC857" stroke="#C9821E" stroke-opacity="0.55" stroke-width="1"/><circle cx="365.3" cy="278.6" r="1.7" fill="#FFFFFF" opacity="0.75"/><circle cx="366.7" cy="310" r="11.4" fill="url(#h2g0)"/><circle cx="366.7" cy="310" r="4.4" fill="#FFC857" stroke="#C9821E" stroke-opacity="0.55" stroke-width="1"/><circle cx="365.3" cy="308.6" r="1.7" fill="#FFFFFF" opacity="0.75"/><circle cx="366.7" cy="340" r="11.4" fill="url(#h2g0)"/><circle cx="366.7" cy="340" r="4.4" fill="#FFC857" stroke="#C9821E" stroke-opacity="0.55" stroke-width="1"/><circle cx="365.3" cy="338.6" r="1.7" fill="#FFFFFF" opacity="0.75"/><circle cx="366.7" cy="370" r="11.4" fill="url(#h2g0)"/><circle cx="366.7" cy="370" r="4.4" fill="#FFC857" stroke="#C9821E" stroke-opacity="0.55" stroke-width="1"/><circle cx="365.3" cy="368.6" r="1.7" fill="#FFFFFF" opacity="0.75"/><circle cx="366.7" cy="420" r="53.2" fill="url(#h2g0)"/><path d="M366.7,392 L374.2,409.6 L393.3,411.3 L378.9,424 L383.1,442.7 L366.7,432.9 L350.2,442.7 L354.4,424 L340,411.3 L359.1,409.6 Z" fill="#FFC857" stroke="#C77800" stroke-opacity="0.6" stroke-width="2" stroke-linejoin="round"/><path d="M366.7,407.4 L370.1,415.3 L378.6,416.1 L372.2,421.8 L374.1,430.2 L366.7,425.8 L359.3,430.2 L361.2,421.8 L354.7,416.1 L363.3,415.3 Z" fill="#FFFFFF" opacity="0.6"/><path d="M450 130V472" stroke="#8A5A3C" stroke-width="1.6" opacity="0.8"/><circle cx="450" cy="160" r="11.4" fill="url(#h2g2)"/><circle cx="450" cy="160" r="4.4" fill="#F59E0B" stroke="#C9821E" stroke-opacity="0.55" stroke-width="1"/><circle cx="448.6" cy="158.6" r="1.7" fill="#FFFFFF" opacity="0.75"/><circle cx="450" cy="190" r="11.4" fill="url(#h2g2)"/><circle cx="450" cy="190" r="4.4" fill="#F59E0B" stroke="#C9821E" stroke-opacity="0.55" stroke-width="1"/><circle cx="448.6" cy="188.6" r="1.7" fill="#FFFFFF" opacity="0.75"/><circle cx="450" cy="220" r="11.4" fill="url(#h2g2)"/><circle cx="450" cy="220" r="4.4" fill="#F59E0B" stroke="#C9821E" stroke-opacity="0.55" stroke-width="1"/><circle cx="448.6" cy="218.6" r="1.7" fill="#FFFFFF" opacity="0.75"/><circle cx="450" cy="250" r="11.4" fill="url(#h2g2)"/><circle cx="450" cy="250" r="4.4" fill="#F59E0B" stroke="#C9821E" stroke-opacity="0.55" stroke-width="1"/><circle cx="448.6" cy="248.6" r="1.7" fill="#FFFFFF" opacity="0.75"/><circle cx="450" cy="280" r="11.4" fill="url(#h2g2)"/><circle cx="450" cy="280" r="4.4" fill="#F59E0B" stroke="#C9821E" stroke-opacity="0.55" stroke-width="1"/><circle cx="448.6" cy="278.6" r="1.7" fill="#FFFFFF" opacity="0.75"/><circle cx="450" cy="310" r="11.4" fill="url(#h2g2)"/><circle cx="450" cy="310" r="4.4" fill="#F59E0B" stroke="#C9821E" stroke-opacity="0.55" stroke-width="1"/><circle cx="448.6" cy="308.6" r="1.7" fill="#FFFFFF" opacity="0.75"/><circle cx="450" cy="340" r="11.4" fill="url(#h2g2)"/><circle cx="450" cy="340" r="4.4" fill="#F59E0B" stroke="#C9821E" stroke-opacity="0.55" stroke-width="1"/><circle cx="448.6" cy="338.6" r="1.7" fill="#FFFFFF" opacity="0.75"/><circle cx="450" cy="370" r="11.4" fill="url(#h2g2)"/><circle cx="450" cy="370" r="4.4" fill="#F59E0B" stroke="#C9821E" stroke-opacity="0.55" stroke-width="1"/><circle cx="448.6" cy="368.6" r="1.7" fill="#FFFFFF" opacity="0.75"/><circle cx="450" cy="400" r="11.4" fill="url(#h2g2)"/><circle cx="450" cy="400" r="4.4" fill="#F59E0B" stroke="#C9821E" stroke-opacity="0.55" stroke-width="1"/><circle cx="448.6" cy="398.6" r="1.7" fill="#FFFFFF" opacity="0.75"/><circle cx="450" cy="430" r="11.4" fill="url(#h2g2)"/><circle cx="450" cy="430" r="4.4" fill="#F59E0B" stroke="#C9821E" stroke-opacity="0.55" stroke-width="1"/><circle cx="448.6" cy="428.6" r="1.7" fill="#FFFFFF" opacity="0.75"/><circle cx="450" cy="500" r="53.2" fill="url(#h2g2)"/><path d="M450,472 L457.6,489.6 L476.6,491.3 L462.2,504 L466.5,522.7 L450,512.9 L433.5,522.7 L437.8,504 L423.4,491.3 L442.4,489.6 Z" fill="#F59E0B" stroke="#C77800" stroke-opacity="0.6" stroke-width="2" stroke-linejoin="round"/><path d="M450,487.4 L453.4,495.3 L462,496.1 L455.5,501.8 L457.4,510.2 L450,505.8 L442.6,510.2 L444.5,501.8 L438,496.1 L446.6,495.3 Z" fill="#FFFFFF" opacity="0.6"/><path d="M533.3 130V382" stroke="#8A5A3C" stroke-width="1.6" opacity="0.8"/><circle cx="533.3" cy="160" r="11.4" fill="url(#h2g0)"/><circle cx="533.3" cy="160" r="4.4" fill="#FFC857" stroke="#C9821E" stroke-opacity="0.55" stroke-width="1"/><circle cx="531.9" cy="158.6" r="1.7" fill="#FFFFFF" opacity="0.75"/><circle cx="533.3" cy="190" r="11.4" fill="url(#h2g0)"/><circle cx="533.3" cy="190" r="4.4" fill="#FFC857" stroke="#C9821E" stroke-opacity="0.55" stroke-width="1"/><circle cx="531.9" cy="188.6" r="1.7" fill="#FFFFFF" opacity="0.75"/><circle cx="533.3" cy="220" r="11.4" fill="url(#h2g0)"/><circle cx="533.3" cy="220" r="4.4" fill="#FFC857" stroke="#C9821E" stroke-opacity="0.55" stroke-width="1"/><circle cx="531.9" cy="218.6" r="1.7" fill="#FFFFFF" opacity="0.75"/><circle cx="533.3" cy="250" r="11.4" fill="url(#h2g0)"/><circle cx="533.3" cy="250" r="4.4" fill="#FFC857" stroke="#C9821E" stroke-opacity="0.55" stroke-width="1"/><circle cx="531.9" cy="248.6" r="1.7" fill="#FFFFFF" opacity="0.75"/><circle cx="533.3" cy="280" r="11.4" fill="url(#h2g0)"/><circle cx="533.3" cy="280" r="4.4" fill="#FFC857" stroke="#C9821E" stroke-opacity="0.55" stroke-width="1"/><circle cx="531.9" cy="278.6" r="1.7" fill="#FFFFFF" opacity="0.75"/><circle cx="533.3" cy="310" r="11.4" fill="url(#h2g0)"/><circle cx="533.3" cy="310" r="4.4" fill="#FFC857" stroke="#C9821E" stroke-opacity="0.55" stroke-width="1"/><circle cx="531.9" cy="308.6" r="1.7" fill="#FFFFFF" opacity="0.75"/><circle cx="533.3" cy="340" r="11.4" fill="url(#h2g0)"/><circle cx="533.3" cy="340" r="4.4" fill="#FFC857" stroke="#C9821E" stroke-opacity="0.55" stroke-width="1"/><circle cx="531.9" cy="338.6" r="1.7" fill="#FFFFFF" opacity="0.75"/><circle cx="533.3" cy="410" r="53.2" fill="url(#h2g0)"/><path d="M533.3,382 L540.9,399.6 L560,401.3 L545.6,414 L549.8,432.7 L533.3,422.9 L516.9,432.7 L521.1,414 L506.7,401.3 L525.8,399.6 Z" fill="#FFC857" stroke="#C77800" stroke-opacity="0.6" stroke-width="2" stroke-linejoin="round"/><path d="M533.3,397.4 L536.7,405.3 L545.3,406.1 L538.8,411.8 L540.7,420.2 L533.3,415.8 L525.9,420.2 L527.8,411.8 L521.4,406.1 L529.9,405.3 Z" fill="#FFFFFF" opacity="0.6"/><path d="M616.7 130V432" stroke="#8A5A3C" stroke-width="1.6" opacity="0.8"/><circle cx="616.7" cy="160" r="11.4" fill="url(#h2g1)"/><circle cx="616.7" cy="160" r="4.4" fill="#ED1857" stroke="#C9821E" stroke-opacity="0.55" stroke-width="1"/><circle cx="615.3" cy="158.6" r="1.7" fill="#FFFFFF" opacity="0.75"/><circle cx="616.7" cy="190" r="11.4" fill="url(#h2g1)"/><circle cx="616.7" cy="190" r="4.4" fill="#ED1857" stroke="#C9821E" stroke-opacity="0.55" stroke-width="1"/><circle cx="615.3" cy="188.6" r="1.7" fill="#FFFFFF" opacity="0.75"/><circle cx="616.7" cy="220" r="11.4" fill="url(#h2g1)"/><circle cx="616.7" cy="220" r="4.4" fill="#ED1857" stroke="#C9821E" stroke-opacity="0.55" stroke-width="1"/><circle cx="615.3" cy="218.6" r="1.7" fill="#FFFFFF" opacity="0.75"/><circle cx="616.7" cy="250" r="11.4" fill="url(#h2g1)"/><circle cx="616.7" cy="250" r="4.4" fill="#ED1857" stroke="#C9821E" stroke-opacity="0.55" stroke-width="1"/><circle cx="615.3" cy="248.6" r="1.7" fill="#FFFFFF" opacity="0.75"/><circle cx="616.7" cy="280" r="11.4" fill="url(#h2g1)"/><circle cx="616.7" cy="280" r="4.4" fill="#ED1857" stroke="#C9821E" stroke-opacity="0.55" stroke-width="1"/><circle cx="615.3" cy="278.6" r="1.7" fill="#FFFFFF" opacity="0.75"/><circle cx="616.7" cy="310" r="11.4" fill="url(#h2g1)"/><circle cx="616.7" cy="310" r="4.4" fill="#ED1857" stroke="#C9821E" stroke-opacity="0.55" stroke-width="1"/><circle cx="615.3" cy="308.6" r="1.7" fill="#FFFFFF" opacity="0.75"/><circle cx="616.7" cy="340" r="11.4" fill="url(#h2g1)"/><circle cx="616.7" cy="340" r="4.4" fill="#ED1857" stroke="#C9821E" stroke-opacity="0.55" stroke-width="1"/><circle cx="615.3" cy="338.6" r="1.7" fill="#FFFFFF" opacity="0.75"/><circle cx="616.7" cy="370" r="11.4" fill="url(#h2g1)"/><circle cx="616.7" cy="370" r="4.4" fill="#ED1857" stroke="#C9821E" stroke-opacity="0.55" stroke-width="1"/><circle cx="615.3" cy="368.6" r="1.7" fill="#FFFFFF" opacity="0.75"/><circle cx="616.7" cy="400" r="11.4" fill="url(#h2g1)"/><circle cx="616.7" cy="400" r="4.4" fill="#ED1857" stroke="#C9821E" stroke-opacity="0.55" stroke-width="1"/><circle cx="615.3" cy="398.6" r="1.7" fill="#FFFFFF" opacity="0.75"/><circle cx="616.7" cy="460" r="53.2" fill="url(#h2g1)"/><path d="M616.7,432 L624.2,449.6 L643.3,451.3 L628.9,464 L633.1,482.7 L616.7,472.9 L600.2,482.7 L604.4,464 L590,451.3 L609.1,449.6 Z" fill="#ED1857" stroke="#C77800" stroke-opacity="0.6" stroke-width="2" stroke-linejoin="round"/><path d="M616.7,447.4 L620.1,455.3 L628.6,456.1 L622.2,461.8 L624.1,470.2 L616.7,465.8 L609.3,470.2 L611.2,461.8 L604.7,456.1 L613.3,455.3 Z" fill="#FFFFFF" opacity="0.6"/><path d="M700 130V352" stroke="#8A5A3C" stroke-width="1.6" opacity="0.8"/><circle cx="700" cy="160" r="11.4" fill="url(#h2g0)"/><circle cx="700" cy="160" r="4.4" fill="#FFC857" stroke="#C9821E" stroke-opacity="0.55" stroke-width="1"/><circle cx="698.6" cy="158.6" r="1.7" fill="#FFFFFF" opacity="0.75"/><circle cx="700" cy="190" r="11.4" fill="url(#h2g0)"/><circle cx="700" cy="190" r="4.4" fill="#FFC857" stroke="#C9821E" stroke-opacity="0.55" stroke-width="1"/><circle cx="698.6" cy="188.6" r="1.7" fill="#FFFFFF" opacity="0.75"/><circle cx="700" cy="220" r="11.4" fill="url(#h2g0)"/><circle cx="700" cy="220" r="4.4" fill="#FFC857" stroke="#C9821E" stroke-opacity="0.55" stroke-width="1"/><circle cx="698.6" cy="218.6" r="1.7" fill="#FFFFFF" opacity="0.75"/><circle cx="700" cy="250" r="11.4" fill="url(#h2g0)"/><circle cx="700" cy="250" r="4.4" fill="#FFC857" stroke="#C9821E" stroke-opacity="0.55" stroke-width="1"/><circle cx="698.6" cy="248.6" r="1.7" fill="#FFFFFF" opacity="0.75"/><circle cx="700" cy="280" r="11.4" fill="url(#h2g0)"/><circle cx="700" cy="280" r="4.4" fill="#FFC857" stroke="#C9821E" stroke-opacity="0.55" stroke-width="1"/><circle cx="698.6" cy="278.6" r="1.7" fill="#FFFFFF" opacity="0.75"/><circle cx="700" cy="310" r="11.4" fill="url(#h2g0)"/><circle cx="700" cy="310" r="4.4" fill="#FFC857" stroke="#C9821E" stroke-opacity="0.55" stroke-width="1"/><circle cx="698.6" cy="308.6" r="1.7" fill="#FFFFFF" opacity="0.75"/><circle cx="700" cy="380" r="53.2" fill="url(#h2g0)"/><path d="M700,352 L707.6,369.6 L726.6,371.3 L712.2,384 L716.5,402.7 L700,392.9 L683.5,402.7 L687.8,384 L673.4,371.3 L692.4,369.6 Z" fill="#FFC857" stroke="#C77800" stroke-opacity="0.6" stroke-width="2" stroke-linejoin="round"/><path d="M700,367.4 L703.4,375.3 L712,376.1 L705.5,381.8 L707.4,390.2 L700,385.8 L692.6,390.2 L694.5,381.8 L688,376.1 L696.6,375.3 Z" fill="#FFFFFF" opacity="0.6"/><path d="M150 408l3.4 8.6 8.6 3.4-8.6 3.4-3.4 8.6-3.4-8.6-8.6-3.4 8.6-3.4Z" fill="#F59E0B" opacity="0.8"/><path d="M760 470l2.8 7.2 7.2 2.8-7.2 2.8-2.8 7.2-2.8-7.2-7.2-2.8 7.2-2.8Z" fill="#ED1857" opacity="0.7"/>
</svg>
