<svg xmlns="http://www.w3.org/2000/svg" width="600" height="500" viewBox="0 0 600 500" preserveAspectRatio="xMidYMid slice" role="img" aria-label="Laptop, headphones and smartwatch">
  <defs>
    <radialGradient id="h1mbg" cx="30%" cy="22%" r="95%">
      <stop offset="0" stop-color="#FFFFFF"/>
      <stop offset="1" stop-color="#F0EBE2"/>
    </radialGradient>
    <linearGradient id="h1mo" x1="0" y1="0" x2="1" y2="1">
      <stop offset="0" stop-color="#FF8A3D"/>
      <stop offset="1" stop-color="#F4511E"/>
    </linearGradient>
  </defs>
  <rect width="600" height="500" fill="url(#h1mbg)"/>
  <path d="M600 0v236A236 236 0 0 0 364 0Z" fill="url(#h1mo)"/>
  <circle cx="72" cy="118" r="44" fill="#F4511E" opacity="0.1"/>
  <ellipse cx="300" cy="404" rx="240" ry="22" fill="#0F2143" opacity="0.09"/>

  <g>
    <rect x="196" y="164" width="240" height="184" rx="14" fill="#0F2143"/>
    <rect x="207" y="175" width="218" height="154" rx="8" fill="#FFFFFF"/>
    <rect x="223" y="191" width="84" height="11" rx="5.5" fill="#F4511E"/>
    <rect x="223" y="212" width="142" height="8" rx="4" fill="#6B7280" opacity="0.32"/>
    <rect x="223" y="228" width="110" height="8" rx="4" fill="#6B7280" opacity="0.22"/>
    <rect x="223" y="252" width="64" height="62" rx="10" fill="#FF8A3D" opacity="0.9"/>
    <rect x="297" y="252" width="64" height="62" rx="10" fill="#0F2143" opacity="0.12"/>
    <rect x="371" y="252" width="38" height="62" rx="10" fill="#0F2143" opacity="0.07"/>
    <path d="M176 348h280l24 27a8 8 0 0 1-6 13H158a8 8 0 0 1-6-13Z" fill="#DCE0E7"/>
    <rect x="284" y="373" width="62" height="6" rx="3" fill="#0F2143" opacity="0.18"/>
  </g>

  <g>
    <path d="M86 358a48 48 0 0 1 96 0" fill="none" stroke="#0F2143" stroke-width="12" stroke-linecap="round"/>
    <rect x="74" y="346" width="27" height="55" rx="13.5" fill="#0F2143"/>
    <rect x="167" y="346" width="27" height="55" rx="13.5" fill="#0F2143"/>
    <rect x="79" y="357" width="17" height="33" rx="8.5" fill="#F4511E"/>
    <rect x="172" y="357" width="17" height="33" rx="8.5" fill="#FF8A3D" opacity="0.75"/>
  </g>

  <g>
    <rect x="474" y="248" width="36" height="56" rx="12" fill="#1D3B6B"/>
    <rect x="474" y="344" width="36" height="52" rx="12" fill="#1D3B6B"/>
    <rect x="460" y="288" width="64" height="68" rx="19" fill="#0F2143"/>
    <rect x="467" y="295" width="50" height="54" rx="14" fill="#F8F7F4"/>
    <path d="M492 306a15 15 0 1 1-10 26" fill="none" stroke="#F4511E" stroke-width="5" stroke-linecap="round"/>
    <rect x="524" y="310" width="6" height="16" rx="3" fill="#FF8A3D"/>
  </g>

  <circle cx="418" cy="108" r="9" fill="#FFFFFF" opacity="0.5"/>
  <circle cx="128" cy="242" r="6" fill="#F4511E" opacity="0.35"/>
</svg>
