<svg xmlns="http://www.w3.org/2000/svg" width="800" height="500" viewBox="0 0 800 500" preserveAspectRatio="xMidYMid slice" role="img" aria-label="Article cover: string lights">
<title>Article cover: string lights</title>
<defs><radialGradient id="b1g0"><stop offset="0" stop-color="#FFC857" stop-opacity="0.75"/><stop offset="1" stop-color="#FFC857" stop-opacity="0"/></radialGradient><radialGradient id="b1g1"><stop offset="0" stop-color="#ED1857" stop-opacity="0.75"/><stop offset="1" stop-color="#ED1857" stop-opacity="0"/></radialGradient><radialGradient id="b1g2"><stop offset="0" stop-color="#F59E0B" stop-opacity="0.75"/><stop offset="1" stop-color="#F59E0B" stop-opacity="0"/></radialGradient><radialGradient id="b1g3"><stop offset="0" stop-color="#22A55B" stop-opacity="0.75"/><stop offset="1" stop-color="#22A55B" stop-opacity="0"/></radialGradient><radialGradient id="b1g4"><stop offset="0" stop-color="#2F7DE1" stop-opacity="0.75"/><stop offset="1" stop-color="#2F7DE1" stop-opacity="0"/></radialGradient><radialGradient id="b1g5"><stop offset="0" stop-color="#9B4DE0" stop-opacity="0.75"/><stop offset="1" stop-color="#9B4DE0" stop-opacity="0"/></radialGradient><radialGradient id="b1g6"><stop offset="0" stop-color="#FF6B3D" stop-opacity="0.75"/><stop offset="1" stop-color="#FF6B3D" stop-opacity="0"/></radialGradient><radialGradient id="b1bg" cx="50%" cy="38%" r="78%"><stop offset="0" stop-color="#6E1133"/><stop offset="1" stop-color="#2A0312"/></radialGradient><linearGradient id="b1flame" x1="0" y1="1" x2="0" y2="0"><stop offset="0" stop-color="#F59E0B"/><stop offset="0.6" stop-color="#FFD166"/><stop offset="1" stop-color="#FFF4CF"/></linearGradient><linearGradient id="b1diya" x1="0" y1="0" x2="0" y2="1"><stop offset="0" stop-color="#ED1857"/><stop offset="1" stop-color="#90002A"/></linearGradient><linearGradient id="b1gold" x1="0" y1="0" x2="1" y2="1"><stop offset="0" stop-color="#FFD166"/><stop offset="1" stop-color="#F59E0B"/></linearGradient><linearGradient id="b1pw" x1="0" y1="0" x2="1" y2="1"><stop offset="0" stop-color="#ED1857"/><stop offset="1" stop-color="#90002A"/></linearGradient><radialGradient id="b1halo"><stop offset="0" stop-color="#FFD166" stop-opacity="0.85"/><stop offset="0.45" stop-color="#ED1857" stop-opacity="0.35"/><stop offset="1" stop-color="#9B4DE0" stop-opacity="0"/></radialGradient><linearGradient id="b1visor" x1="0" y1="0" x2="1" y2="1"><stop offset="0" stop-color="#9B4DE0"/><stop offset="0.5" stop-color="#ED1857"/><stop offset="1" stop-color="#4A041C"/></linearGradient></defs><rect width="800" height="500" fill="url(#b1bg)"/><path d="M537,246 L539.2,251 L544.6,251.5 L540.5,255.1 L541.7,260.5 L537,257.7 L532.3,260.5 L533.5,255.1 L529.4,251.5 L534.8,251 Z" fill="#FFE7A8" opacity="0.86"/><circle cx="147" cy="51" r="3" fill="#FFFFFF" opacity="0.46"/><circle cx="165" cy="211" r="2.4" fill="#FF9BBB" opacity="0.54"/><path d="M210,148 L213,154.9 L220.5,155.6 L214.8,160.6 L216.5,167.9 L210,164.1 L203.5,167.9 L205.2,160.6 L199.5,155.6 L207,154.9 Z" fill="#C9A7FF" opacity="0.70"/><circle cx="710" cy="28" r="1.9" fill="#FFE7A8" opacity="0.89"/><circle cx="426" cy="196" r="2.2" fill="#FFFFFF" opacity="0.71"/><path d="M665,202 L667.2,207 L672.6,207.5 L668.5,211.1 L669.7,216.5 L665,213.7 L660.3,216.5 L661.5,211.1 L657.4,207.5 L662.8,207 Z" fill="#FF9BBB" opacity="0.81"/><circle cx="197" cy="231" r="3.4" fill="#C9A7FF" opacity="0.73"/><circle cx="720" cy="216" r="3.5" fill="#FFE7A8" opacity="0.51"/><path d="M274,239 L275.4,242.1 L278.8,242.5 L276.2,244.7 L276.9,248 L274,246.3 L271.1,248 L271.8,244.7 L269.2,242.5 L272.6,242.1 Z" fill="#FFFFFF" opacity="0.61"/><circle cx="645" cy="374" r="2" fill="#FF9BBB" opacity="0.84"/><circle cx="229" cy="200" r="4" fill="#C9A7FF" opacity="0.46"/><path d="M396,170 L397.6,173.8 L401.7,174.1 L398.6,176.9 L399.5,180.9 L396,178.8 L392.5,180.9 L393.4,176.9 L390.3,174.1 L394.4,173.8 Z" fill="#FFE7A8" opacity="0.65"/><circle cx="516" cy="256" r="2.9" fill="#FFFFFF" opacity="0.62"/><circle cx="69" cy="210" r="1.5" fill="#FF9BBB" opacity="0.73"/><path d="M489,64 L490.9,68.4 L495.7,68.8 L492.1,72 L493.1,76.7 L489,74.2 L484.9,76.7 L485.9,72 L482.3,68.8 L487.1,68.4 Z" fill="#C9A7FF" opacity="0.62"/><circle cx="759" cy="132" r="2.2" fill="#FFE7A8" opacity="0.74"/><circle cx="41" cy="182" r="3.5" fill="#FFFFFF" opacity="0.65"/><path d="M542,343 L543.4,346.1 L546.8,346.5 L544.2,348.7 L544.9,352 L542,350.3 L539.1,352 L539.8,348.7 L537.2,346.5 L540.6,346.1 Z" fill="#FF9BBB" opacity="0.87"/><circle cx="568" cy="122" r="2.6" fill="#C9A7FF" opacity="0.90"/><circle cx="630" cy="359" r="2.1" fill="#FFE7A8" opacity="0.83"/><path d="M489,121 L492,127.9 L499.5,128.6 L493.8,133.6 L495.5,140.9 L489,137.1 L482.5,140.9 L484.2,133.6 L478.5,128.6 L486,127.9 Z" fill="#FFFFFF" opacity="0.95"/><circle cx="682" cy="66" r="2.3" fill="#FF9BBB" opacity="0.62"/><circle cx="89" cy="42" r="2.3" fill="#C9A7FF" opacity="0.88"/><path d="M117,30 L119.4,35.7 L125.6,36.2 L120.9,40.3 L122.3,46.3 L117,43.1 L111.7,46.3 L113.1,40.3 L108.4,36.2 L114.6,35.7 Z" fill="#FFE7A8" opacity="0.92"/><circle cx="735" cy="423" r="2.7" fill="#FFFFFF" opacity="0.68"/><circle cx="238" cy="437" r="2.3" fill="#FF9BBB" opacity="0.72"/><path d="M248,183 L250.2,188 L255.6,188.5 L251.5,192.1 L252.7,197.5 L248,194.7 L243.3,197.5 L244.5,192.1 L240.4,188.5 L245.8,188 Z" fill="#C9A7FF" opacity="0.85"/><circle cx="72" cy="253" r="3.3" fill="#FFE7A8" opacity="0.68"/><circle cx="421" cy="226" r="1.6" fill="#FFFFFF" opacity="0.71"/><path d="M40 90Q400 210 760 90" fill="none" stroke="#D9B27C" stroke-width="2.2"/><circle cx="88" cy="110.9" r="17" fill="url(#b1g0)"/><circle cx="88" cy="110.9" r="5" fill="#FFC857"/><circle cx="86.4" cy="109.3" r="1.9" fill="#FFFFFF" opacity="0.75"/><circle cx="136" cy="123.7" r="17" fill="url(#b1g0)"/><circle cx="136" cy="123.7" r="5" fill="#FFC857"/><circle cx="134.4" cy="122.1" r="1.9" fill="#FFFFFF" opacity="0.75"/><circle cx="184" cy="134.4" r="17" fill="url(#b1g0)"/><circle cx="184" cy="134.4" r="5" fill="#FFC857"/><circle cx="182.4" cy="132.8" r="1.9" fill="#FFFFFF" opacity="0.75"/><circle cx="232" cy="142.9" r="17" fill="url(#b1g0)"/><circle cx="232" cy="142.9" r="5" fill="#FFC857"/><circle cx="230.4" cy="141.3" r="1.9" fill="#FFFFFF" opacity="0.75"/><circle cx="280" cy="149.3" r="17" fill="url(#b1g0)"/><circle cx="280" cy="149.3" r="5" fill="#FFC857"/><circle cx="278.4" cy="147.7" r="1.9" fill="#FFFFFF" opacity="0.75"/><circle cx="328" cy="153.6" r="17" fill="url(#b1g0)"/><circle cx="328" cy="153.6" r="5" fill="#FFC857"/><circle cx="326.4" cy="152" r="1.9" fill="#FFFFFF" opacity="0.75"/><circle cx="376" cy="155.7" r="17" fill="url(#b1g0)"/><circle cx="376" cy="155.7" r="5" fill="#FFC857"/><circle cx="374.4" cy="154.1" r="1.9" fill="#FFFFFF" opacity="0.75"/><circle cx="424" cy="155.7" r="17" fill="url(#b1g0)"/><circle cx="424" cy="155.7" r="5" fill="#FFC857"/><circle cx="422.4" cy="154.1" r="1.9" fill="#FFFFFF" opacity="0.75"/><circle cx="472" cy="153.6" r="17" fill="url(#b1g0)"/><circle cx="472" cy="153.6" r="5" fill="#FFC857"/><circle cx="470.4" cy="152" r="1.9" fill="#FFFFFF" opacity="0.75"/><circle cx="520" cy="149.3" r="17" fill="url(#b1g0)"/><circle cx="520" cy="149.3" r="5" fill="#FFC857"/><circle cx="518.4" cy="147.7" r="1.9" fill="#FFFFFF" opacity="0.75"/><circle cx="568" cy="142.9" r="17" fill="url(#b1g0)"/><circle cx="568" cy="142.9" r="5" fill="#FFC857"/><circle cx="566.4" cy="141.3" r="1.9" fill="#FFFFFF" opacity="0.75"/><circle cx="616" cy="134.4" r="17" fill="url(#b1g0)"/><circle cx="616" cy="134.4" r="5" fill="#FFC857"/><circle cx="614.4" cy="132.8" r="1.9" fill="#FFFFFF" opacity="0.75"/><circle cx="664" cy="123.7" r="17" fill="url(#b1g0)"/><circle cx="664" cy="123.7" r="5" fill="#FFC857"/><circle cx="662.4" cy="122.1" r="1.9" fill="#FFFFFF" opacity="0.75"/><circle cx="712" cy="110.9" r="17" fill="url(#b1g0)"/><circle cx="712" cy="110.9" r="5" fill="#FFC857"/><circle cx="710.4" cy="109.3" r="1.9" fill="#FFFFFF" opacity="0.75"/><path d="M60 230Q400 340 740 230" fill="none" stroke="#D9B27C" stroke-width="2.2"/><circle cx="105.3" cy="249.7" r="17" fill="url(#b1g0)"/><circle cx="105.3" cy="249.7" r="5" fill="#FFC857"/><circle cx="103.7" cy="248.1" r="1.9" fill="#FFFFFF" opacity="0.75"/><circle cx="150.7" cy="261.4" r="17" fill="url(#b1g0)"/><circle cx="150.7" cy="261.4" r="5" fill="#FFC857"/><circle cx="149.1" cy="259.8" r="1.9" fill="#FFFFFF" opacity="0.75"/><circle cx="196" cy="271.2" r="17" fill="url(#b1g0)"/><circle cx="196" cy="271.2" r="5" fill="#FFC857"/><circle cx="194.4" cy="269.6" r="1.9" fill="#FFFFFF" opacity="0.75"/><circle cx="241.3" cy="279" r="17" fill="url(#b1g0)"/><circle cx="241.3" cy="279" r="5" fill="#FFC857"/><circle cx="239.7" cy="277.4" r="1.9" fill="#FFFFFF" opacity="0.75"/><circle cx="286.7" cy="284.9" r="17" fill="url(#b1g0)"/><circle cx="286.7" cy="284.9" r="5" fill="#FFC857"/><circle cx="285.1" cy="283.3" r="1.9" fill="#FFFFFF" opacity="0.75"/><circle cx="332" cy="288.8" r="17" fill="url(#b1g0)"/><circle cx="332" cy="288.8" r="5" fill="#FFC857"/><circle cx="330.4" cy="287.2" r="1.9" fill="#FFFFFF" opacity="0.75"/><circle cx="377.3" cy="290.8" r="17" fill="url(#b1g0)"/><circle cx="377.3" cy="290.8" r="5" fill="#FFC857"/><circle cx="375.7" cy="289.2" r="1.9" fill="#FFFFFF" opacity="0.75"/><circle cx="422.7" cy="290.8" r="17" fill="url(#b1g0)"/><circle cx="422.7" cy="290.8" r="5" fill="#FFC857"/><circle cx="421.1" cy="289.2" r="1.9" fill="#FFFFFF" opacity="0.75"/><circle cx="468" cy="288.8" r="17" fill="url(#b1g0)"/><circle cx="468" cy="288.8" r="5" fill="#FFC857"/><circle cx="466.4" cy="287.2" r="1.9" fill="#FFFFFF" opacity="0.75"/><circle cx="513.3" cy="284.9" r="17" fill="url(#b1g0)"/><circle cx="513.3" cy="284.9" r="5" fill="#FFC857"/><circle cx="511.7" cy="283.3" r="1.9" fill="#FFFFFF" opacity="0.75"/><circle cx="558.7" cy="279" r="17" fill="url(#b1g0)"/><circle cx="558.7" cy="279" r="5" fill="#FFC857"/><circle cx="557.1" cy="277.4" r="1.9" fill="#FFFFFF" opacity="0.75"/><circle cx="604" cy="271.2" r="17" fill="url(#b1g0)"/><circle cx="604" cy="271.2" r="5" fill="#FFC857"/><circle cx="602.4" cy="269.6" r="1.9" fill="#FFFFFF" opacity="0.75"/><circle cx="649.3" cy="261.4" r="17" fill="url(#b1g0)"/><circle cx="649.3" cy="261.4" r="5" fill="#FFC857"/><circle cx="647.7" cy="259.8" r="1.9" fill="#FFFFFF" opacity="0.75"/><circle cx="694.7" cy="249.7" r="17" fill="url(#b1g0)"/><circle cx="694.7" cy="249.7" r="5" fill="#FFC857"/><circle cx="693.1" cy="248.1" r="1.9" fill="#FFFFFF" opacity="0.75"/><path d="M40 360Q400 460 760 360" fill="none" stroke="#D9B27C" stroke-width="2.2"/><circle cx="88" cy="378.4" r="17" fill="url(#b1g0)"/><circle cx="88" cy="378.4" r="5" fill="#FFC857"/><circle cx="86.4" cy="376.8" r="1.9" fill="#FFFFFF" opacity="0.75"/><circle cx="136" cy="389.1" r="17" fill="url(#b1g0)"/><circle cx="136" cy="389.1" r="5" fill="#FFC857"/><circle cx="134.4" cy="387.5" r="1.9" fill="#FFFFFF" opacity="0.75"/><circle cx="184" cy="398" r="17" fill="url(#b1g0)"/><circle cx="184" cy="398" r="5" fill="#FFC857"/><circle cx="182.4" cy="396.4" r="1.9" fill="#FFFFFF" opacity="0.75"/><circle cx="232" cy="405.1" r="17" fill="url(#b1g0)"/><circle cx="232" cy="405.1" r="5" fill="#FFC857"/><circle cx="230.4" cy="403.5" r="1.9" fill="#FFFFFF" opacity="0.75"/><circle cx="280" cy="410.4" r="17" fill="url(#b1g0)"/><circle cx="280" cy="410.4" r="5" fill="#FFC857"/><circle cx="278.4" cy="408.8" r="1.9" fill="#FFFFFF" opacity="0.75"/><circle cx="328" cy="414" r="17" fill="url(#b1g0)"/><circle cx="328" cy="414" r="5" fill="#FFC857"/><circle cx="326.4" cy="412.4" r="1.9" fill="#FFFFFF" opacity="0.75"/><circle cx="376" cy="415.8" r="17" fill="url(#b1g0)"/><circle cx="376" cy="415.8" r="5" fill="#FFC857"/><circle cx="374.4" cy="414.2" r="1.9" fill="#FFFFFF" opacity="0.75"/><circle cx="424" cy="415.8" r="17" fill="url(#b1g0)"/><circle cx="424" cy="415.8" r="5" fill="#FFC857"/><circle cx="422.4" cy="414.2" r="1.9" fill="#FFFFFF" opacity="0.75"/><circle cx="472" cy="414" r="17" fill="url(#b1g0)"/><circle cx="472" cy="414" r="5" fill="#FFC857"/><circle cx="470.4" cy="412.4" r="1.9" fill="#FFFFFF" opacity="0.75"/><circle cx="520" cy="410.4" r="17" fill="url(#b1g0)"/><circle cx="520" cy="410.4" r="5" fill="#FFC857"/><circle cx="518.4" cy="408.8" r="1.9" fill="#FFFFFF" opacity="0.75"/><circle cx="568" cy="405.1" r="17" fill="url(#b1g0)"/><circle cx="568" cy="405.1" r="5" fill="#FFC857"/><circle cx="566.4" cy="403.5" r="1.9" fill="#FFFFFF" opacity="0.75"/><circle cx="616" cy="398" r="17" fill="url(#b1g0)"/><circle cx="616" cy="398" r="5" fill="#FFC857"/><circle cx="614.4" cy="396.4" r="1.9" fill="#FFFFFF" opacity="0.75"/><circle cx="664" cy="389.1" r="17" fill="url(#b1g0)"/><circle cx="664" cy="389.1" r="5" fill="#FFC857"/><circle cx="662.4" cy="387.5" r="1.9" fill="#FFFFFF" opacity="0.75"/><circle cx="712" cy="378.4" r="17" fill="url(#b1g0)"/><circle cx="712" cy="378.4" r="5" fill="#FFC857"/><circle cx="710.4" cy="376.8" r="1.9" fill="#FFFFFF" opacity="0.75"/>
</svg>
