<svg xmlns="http://www.w3.org/2000/svg" width="800" height="500" viewBox="0 0 800 500" preserveAspectRatio="xMidYMid slice" role="img" aria-label="Article cover: table lamp and projector">
<title>Article cover: table lamp and projector</title>
<defs><radialGradient id="b4g0"><stop offset="0" stop-color="#FFC857" stop-opacity="0.75"/><stop offset="1" stop-color="#FFC857" stop-opacity="0"/></radialGradient><radialGradient id="b4g1"><stop offset="0" stop-color="#ED1857" stop-opacity="0.75"/><stop offset="1" stop-color="#ED1857" stop-opacity="0"/></radialGradient><radialGradient id="b4g2"><stop offset="0" stop-color="#F59E0B" stop-opacity="0.75"/><stop offset="1" stop-color="#F59E0B" stop-opacity="0"/></radialGradient><radialGradient id="b4g3"><stop offset="0" stop-color="#22A55B" stop-opacity="0.75"/><stop offset="1" stop-color="#22A55B" stop-opacity="0"/></radialGradient><radialGradient id="b4g4"><stop offset="0" stop-color="#2F7DE1" stop-opacity="0.75"/><stop offset="1" stop-color="#2F7DE1" stop-opacity="0"/></radialGradient><radialGradient id="b4g5"><stop offset="0" stop-color="#9B4DE0" stop-opacity="0.75"/><stop offset="1" stop-color="#9B4DE0" stop-opacity="0"/></radialGradient><radialGradient id="b4g6"><stop offset="0" stop-color="#FF6B3D" stop-opacity="0.75"/><stop offset="1" stop-color="#FF6B3D" stop-opacity="0"/></radialGradient><radialGradient id="b4bg" cx="50%" cy="38%" r="78%"><stop offset="0" stop-color="#6E1133"/><stop offset="1" stop-color="#2A0312"/></radialGradient><linearGradient id="b4flame" x1="0" y1="1" x2="0" y2="0"><stop offset="0" stop-color="#F59E0B"/><stop offset="0.6" stop-color="#FFD166"/><stop offset="1" stop-color="#FFF4CF"/></linearGradient><linearGradient id="b4diya" x1="0" y1="0" x2="0" y2="1"><stop offset="0" stop-color="#ED1857"/><stop offset="1" stop-color="#90002A"/></linearGradient><linearGradient id="b4gold" x1="0" y1="0" x2="1" y2="1"><stop offset="0" stop-color="#FFD166"/><stop offset="1" stop-color="#F59E0B"/></linearGradient><linearGradient id="b4pw" x1="0" y1="0" x2="1" y2="1"><stop offset="0" stop-color="#ED1857"/><stop offset="1" stop-color="#90002A"/></linearGradient><radialGradient id="b4halo"><stop offset="0" stop-color="#FFD166" stop-opacity="0.85"/><stop offset="0.45" stop-color="#ED1857" stop-opacity="0.35"/><stop offset="1" stop-color="#9B4DE0" stop-opacity="0"/></radialGradient><linearGradient id="b4visor" x1="0" y1="0" x2="1" y2="1"><stop offset="0" stop-color="#9B4DE0"/><stop offset="0.5" stop-color="#ED1857"/><stop offset="1" stop-color="#4A041C"/></linearGradient></defs><rect width="800" height="500" fill="url(#b4bg)"/><path d="M698,68 L700.2,73 L705.6,73.5 L701.5,77.1 L702.7,82.5 L698,79.7 L693.3,82.5 L694.5,77.1 L690.4,73.5 L695.8,73 Z" fill="#FFE7A8" opacity="0.79"/><circle cx="601" cy="282" r="3.2" fill="#FFFFFF" opacity="0.41"/><circle cx="724" cy="245" r="1.6" fill="#FF9BBB" opacity="0.63"/><path d="M597,176 L599.7,182.3 L606.5,182.9 L601.4,187.4 L602.9,194.1 L597,190.6 L591.1,194.1 L592.6,187.4 L587.5,182.9 L594.3,182.3 Z" fill="#C9A7FF" opacity="0.59"/><circle cx="444" cy="68" r="3.2" fill="#FFE7A8" opacity="0.42"/><circle cx="493" cy="261" r="1.6" fill="#FFFFFF" opacity="0.48"/><path d="M729,33 L732,39.9 L739.5,40.6 L733.8,45.6 L735.5,52.9 L729,49.1 L722.5,52.9 L724.2,45.6 L718.5,40.6 L726,39.9 Z" fill="#FF9BBB" opacity="0.55"/><circle cx="517" cy="222" r="3.7" fill="#C9A7FF" opacity="0.44"/><circle cx="410" cy="165" r="2.3" fill="#FFE7A8" opacity="0.59"/><path d="M386,20 L389,26.9 L396.5,27.6 L390.8,32.6 L392.5,39.9 L386,36.1 L379.5,39.9 L381.2,32.6 L375.5,27.6 L383,26.9 Z" fill="#FFFFFF" opacity="0.66"/><circle cx="400" cy="139" r="1.9" fill="#FF9BBB" opacity="0.46"/><circle cx="554" cy="218" r="3.5" fill="#C9A7FF" opacity="0.52"/><path d="M449,136 L450.6,139.8 L454.7,140.1 L451.6,142.9 L452.5,146.9 L449,144.8 L445.5,146.9 L446.4,142.9 L443.3,140.1 L447.4,139.8 Z" fill="#FFE7A8" opacity="0.59"/><circle cx="775" cy="279" r="2.5" fill="#FFFFFF" opacity="0.67"/><circle cx="411" cy="235" r="3.4" fill="#FF9BBB" opacity="0.85"/><path d="M537,236 L539.4,241.7 L545.6,242.2 L540.9,246.3 L542.3,252.3 L537,249.1 L531.7,252.3 L533.1,246.3 L528.4,242.2 L534.6,241.7 Z" fill="#C9A7FF" opacity="0.62"/><circle cx="632" cy="70" r="3.5" fill="#FFE7A8" opacity="0.50"/><circle cx="608" cy="117" r="2" fill="#FFFFFF" opacity="0.86"/><path d="M724,189 L726.7,195.3 L733.5,195.9 L728.4,200.4 L729.9,207.1 L724,203.6 L718.1,207.1 L719.6,200.4 L714.5,195.9 L721.3,195.3 Z" fill="#FF9BBB" opacity="0.90"/><circle cx="706" cy="199" r="2.9" fill="#C9A7FF" opacity="0.82"/><circle cx="525" cy="110" r="2.2" fill="#FFE7A8" opacity="0.40"/><path d="M675,50 L676.9,54.4 L681.7,54.8 L678.1,58 L679.1,62.7 L675,60.2 L670.9,62.7 L671.9,58 L668.3,54.8 L673.1,54.4 Z" fill="#FFFFFF" opacity="0.75"/><circle cx="623" cy="298" r="4" fill="#FF9BBB" opacity="0.57"/><circle cx="426" cy="270" r="1.6" fill="#C9A7FF" opacity="0.56"/><path d="M487,28 L489.7,34.3 L496.5,34.9 L491.4,39.4 L492.9,46.1 L487,42.6 L481.1,46.1 L482.6,39.4 L477.5,34.9 L484.3,34.3 Z" fill="#FFE7A8" opacity="0.60"/><circle cx="753" cy="99" r="2.3" fill="#FFFFFF" opacity="0.57"/><circle cx="563" cy="140" r="4" fill="#FF9BBB" opacity="0.74"/><path d="M384,225 L385.9,229.4 L390.7,229.8 L387.1,233 L388.1,237.7 L384,235.2 L379.9,237.7 L380.9,233 L377.3,229.8 L382.1,229.4 Z" fill="#C9A7FF" opacity="0.79"/><circle cx="612" cy="190" r="2.8" fill="#FFE7A8" opacity="0.53"/><circle cx="432" cy="108" r="2.9" fill="#FFFFFF" opacity="0.45"/><path d="M560,62 L561.6,65.8 L565.7,66.1 L562.6,68.9 L563.5,72.9 L560,70.8 L556.5,72.9 L557.4,68.9 L554.3,66.1 L558.4,65.8 Z" fill="#FF9BBB" opacity="0.74"/><circle cx="497" cy="278" r="2.5" fill="#C9A7FF" opacity="0.69"/><circle cx="512" cy="245" r="3.1" fill="#FFE7A8" opacity="0.44"/><path d="M554,277 L557,283.9 L564.5,284.6 L558.8,289.6 L560.5,296.9 L554,293.1 L547.5,296.9 L549.2,289.6 L543.5,284.6 L551,283.9 Z" fill="#FFFFFF" opacity="0.89"/><circle cx="501" cy="298" r="3.6" fill="#FF9BBB" opacity="0.78"/><circle cx="539" cy="108" r="1.7" fill="#C9A7FF" opacity="0.89"/><path d="M488,40 L489.6,43.8 L493.7,44.1 L490.6,46.9 L491.5,50.9 L488,48.8 L484.5,50.9 L485.4,46.9 L482.3,44.1 L486.4,43.8 Z" fill="#FFE7A8" opacity="0.79"/><circle cx="460" cy="225" r="2.1" fill="#FFFFFF" opacity="0.50"/><circle cx="741" cy="289" r="2.4" fill="#FF9BBB" opacity="0.68"/><path d="M428,267 L430.4,272.7 L436.6,273.2 L431.9,277.3 L433.3,283.3 L428,280.1 L422.7,283.3 L424.1,277.3 L419.4,273.2 L425.6,272.7 Z" fill="#C9A7FF" opacity="0.81"/><circle cx="386" cy="203" r="3.5" fill="#FFE7A8" opacity="0.50"/><circle cx="762" cy="42" r="2.4" fill="#FFFFFF" opacity="0.71"/><path d="M595,54 L596.6,57.8 L600.7,58.1 L597.6,60.9 L598.5,64.9 L595,62.8 L591.5,64.9 L592.4,60.9 L589.3,58.1 L593.4,57.8 Z" fill="#FF9BBB" opacity="0.57"/><circle cx="416" cy="258" r="2.7" fill="#C9A7FF" opacity="0.59"/><ellipse cx="400" cy="440" rx="320" ry="20" fill="#12010A" opacity="0.5"/><circle cx="250" cy="253.5" r="312.5" fill="url(#b4halo)"/><ellipse cx="250" cy="436" rx="85" ry="17.5" fill="#E7C98A"/><rect x="165" y="416" width="170" height="20" fill="url(#b4gold)"/><rect x="241.2" y="323.5" width="17.5" height="92.5" fill="url(#b4gold)"/><path d="M185 183.5H315L350 223.5L250 333.5L150 223.5Z" fill="#FFFFFF" fill-opacity="0.85" stroke="#ED1857" stroke-width="2.5" stroke-linejoin="round"/><path d="M150 223.5L350 223.5" stroke="#ED1857" stroke-opacity="0.55" stroke-width="1.6"/><path d="M185 183.5L226.6 223.5" stroke="#ED1857" stroke-opacity="0.55" stroke-width="1.6"/><path d="M226.6 223.5L250 183.5" stroke="#ED1857" stroke-opacity="0.55" stroke-width="1.6"/><path d="M250 183.5L273.4 223.5" stroke="#ED1857" stroke-opacity="0.55" stroke-width="1.6"/><path d="M273.4 223.5L315 183.5" stroke="#ED1857" stroke-opacity="0.55" stroke-width="1.6"/><path d="M226.6 223.5L250 333.5" stroke="#ED1857" stroke-opacity="0.55" stroke-width="1.6"/><path d="M273.4 223.5L250 333.5" stroke="#ED1857" stroke-opacity="0.55" stroke-width="1.6"/><path d="M150 223.5L250 333.5" stroke="#ED1857" stroke-opacity="0.55" stroke-width="1.6"/><path d="M350 223.5L250 333.5" stroke="#ED1857" stroke-opacity="0.55" stroke-width="1.6"/><path d="M226.6 223.5L250 183.5L273.4 223.5Z" fill="#9B4DE0" opacity="0.25"/><path d="M150 223.5L226.6 223.5L250 333.5Z" fill="#F59E0B" opacity="0.22"/><path d="M273.4 223.5L350 223.5L250 333.5Z" fill="#ED1857" opacity="0.2"/><ellipse cx="560" cy="440" rx="85.8" ry="14" fill="#1C020B" opacity="0.5"/><rect x="485.9" y="416.6" width="148.2" height="23.4" rx="10.9" fill="url(#b4pw)"/><rect x="505.4" y="334.7" width="109.2" height="81.9" rx="31.2" fill="#F7F4F5" stroke="#D9CFD3" stroke-width="2"/><rect x="538.2" y="355.8" width="43.7" height="28.1" rx="6.2" fill="#ED1857" opacity="0.85"/><circle cx="549.1" cy="369.8" r="3.9" fill="#FFD166"/><circle cx="569.4" cy="369.8" r="3.9" fill="#FFFFFF"/><circle cx="560" cy="278.5" r="78" fill="#FFFFFF" stroke="#D9CFD3" stroke-width="2.5"/><ellipse cx="560" cy="282.4" rx="53" ry="40.6" fill="url(#b4visor)"/><ellipse cx="540.5" cy="267.6" rx="14" ry="7.8" fill="#FFFFFF" opacity="0.6" transform="rotate(-25 540.5 267.6)"/><path d="M575.6,281.7 L576.9,284.6 L580.1,284.9 L577.6,287 L578.4,290.1 L575.6,288.5 L572.8,290.1 L573.6,287 L571.1,284.9 L574.3,284.6 Z" fill="#FFE7A8"/><path d="M586.5,264.5 L587.8,267.4 L591,267.7 L588.6,269.8 L589.3,273 L586.5,271.3 L583.8,273 L584.5,269.8 L582.1,267.7 L585.3,267.4 Z" fill="#FFE7A8"/><path d="M556.1,292.6 L557.4,295.5 L560.6,295.8 L558.1,297.9 L558.9,301 L556.1,299.4 L553.3,301 L554.1,297.9 L551.6,295.8 L554.8,295.5 Z" fill="#FFE7A8"/><path d="M567.8,258.3 L569.1,261.2 L572.3,261.5 L569.8,263.6 L570.6,266.7 L567.8,265.1 L565,266.7 L565.8,263.6 L563.3,261.5 L566.5,261.2 Z" fill="#FFE7A8"/>
</svg>
