<svg xmlns="http://www.w3.org/2000/svg" width="600" height="600" viewBox="0 0 600 600" preserveAspectRatio="xMidYMid meet" role="img" aria-label="Headphone earcup detail with cable">
<defs>
<radialGradient id="bg" cx="50%" cy="36%" r="74%"><stop offset="0" stop-color="#FFFFFF"/><stop offset="1" stop-color="#F2EFE9"/></radialGradient>
<linearGradient id="d" x1="0" y1="0" x2="0" y2="1"><stop offset="0" stop-color="#1C3358"/><stop offset="1" stop-color="#0F2143"/></linearGradient>
<linearGradient id="a" x1="0" y1="0" x2="1" y2="1"><stop offset="0" stop-color="#FF8A3D"/><stop offset="1" stop-color="#F4511E"/></linearGradient>
</defs>
<rect width="600" height="600" rx="32" fill="url(#bg)"/>
<circle cx="300" cy="296" r="200" fill="none" stroke="#0F2143" stroke-opacity=".07" stroke-width="2"/>
<ellipse cx="288" cy="482" rx="150" ry="19" fill="#0F2143" opacity=".07"/>
<path d="M262 118 a54 54 0 0 1 100 26 v70" fill="none" stroke="url(#d)" stroke-width="26" stroke-linecap="round"/>
<rect x="164" y="150" width="248" height="300" rx="112" fill="url(#d)"/>
<rect x="188" y="178" width="200" height="244" rx="94" fill="#22395F"/>
<rect x="212" y="206" width="152" height="188" rx="72" fill="#0F2143"/>
<rect x="232" y="230" width="112" height="140" rx="54" fill="url(#a)" opacity=".9"/>
<circle cx="288" cy="300" r="30" fill="#F8F7F4" opacity=".85"/>
<circle cx="288" cy="300" r="12" fill="#0F2143" opacity=".5"/>
<circle cx="188" cy="404" r="12" fill="#F8F7F4" opacity=".6"/>
<path d="M300 450 q40 60 96 44 q60 -18 34 -66" fill="none" stroke="#6B7280" stroke-width="9" stroke-linecap="round" opacity=".6"/>
<rect x="418" y="410" width="26" height="22" rx="6" fill="url(#a)"/>
</svg>
