<svg xmlns="http://www.w3.org/2000/svg" width="600" height="600" viewBox="0 0 600 600" preserveAspectRatio="xMidYMid meet" role="img" aria-label="Mouse underside with sensor">
<defs>
<radialGradient id="bg" cx="50%" cy="36%" r="74%"><stop offset="0" stop-color="#FFFFFF"/><stop offset="1" stop-color="#E8EDF5"/></radialGradient>
<linearGradient id="d" x1="0" y1="0" x2="0" y2="1"><stop offset="0" stop-color="#1C3358"/><stop offset="1" stop-color="#0F2143"/></linearGradient>
<linearGradient id="a" x1="0" y1="0" x2="1" y2="1"><stop offset="0" stop-color="#FF8A3D"/><stop offset="1" stop-color="#F4511E"/></linearGradient>
</defs>
<rect width="600" height="600" rx="32" fill="url(#bg)"/>
<circle cx="300" cy="296" r="200" fill="none" stroke="#0F2143" stroke-opacity=".07" stroke-width="2"/>
<ellipse cx="300" cy="486" rx="130" ry="19" fill="#0F2143" opacity=".07"/>
<rect x="192" y="120" width="216" height="352" rx="108" fill="url(#d)"/>
<rect x="208" y="136" width="184" height="320" rx="92" fill="#16294A"/>
<circle cx="300" cy="270" r="52" fill="#0F2143" stroke="#2E4874" stroke-width="4"/>
<circle cx="300" cy="270" r="24" fill="url(#a)" opacity=".9"/>
<circle cx="300" cy="270" r="9" fill="#F8F7F4" opacity=".8"/>
<rect x="248" y="164" width="104" height="16" rx="8" fill="#3A5480"/>
<rect x="248" y="396" width="104" height="16" rx="8" fill="#3A5480"/>
<rect x="264" y="342" width="72" height="26" rx="10" fill="#0F2143" stroke="#2E4874" stroke-width="3"/>
<circle cx="284" cy="355" r="6" fill="#3A5480"/>
<circle cx="316" cy="355" r="6" fill="#3A5480"/>
<rect x="272" y="200" width="56" height="10" rx="5" fill="#0F2143" opacity=".5"/>
</svg>
