<svg xmlns="http://www.w3.org/2000/svg" width="600" height="600" viewBox="0 0 600 600" preserveAspectRatio="xMidYMid meet" role="img" aria-label="Controller thumbstick and buttons detail">
<defs>
<radialGradient id="bg" cx="50%" cy="36%" r="74%"><stop offset="0" stop-color="#FFFFFF"/><stop offset="1" stop-color="#F2EFE9"/></radialGradient>
<linearGradient id="d" x1="0" y1="0" x2="0" y2="1"><stop offset="0" stop-color="#1C3358"/><stop offset="1" stop-color="#0F2143"/></linearGradient>
<linearGradient id="a" x1="0" y1="0" x2="1" y2="1"><stop offset="0" stop-color="#FF8A3D"/><stop offset="1" stop-color="#F4511E"/></linearGradient>
</defs>
<rect width="600" height="600" rx="32" fill="url(#bg)"/>
<circle cx="300" cy="296" r="200" fill="none" stroke="#0F2143" stroke-opacity=".07" stroke-width="2"/>
<ellipse cx="300" cy="486" rx="150" ry="19" fill="#0F2143" opacity=".07"/>
<rect x="112" y="150" width="376" height="304" rx="60" fill="url(#d)"/>
<rect x="132" y="170" width="336" height="264" rx="46" fill="#16294A"/>
<circle cx="228" cy="300" r="82" fill="#0F2143"/>
<circle cx="228" cy="300" r="82" fill="none" stroke="#2E4874" stroke-width="5"/>
<circle cx="228" cy="300" r="50" fill="#22395F"/>
<circle cx="228" cy="300" r="26" fill="url(#a)" opacity=".92"/>
<circle cx="220" cy="290" r="9" fill="#F8F7F4" opacity=".55"/>
<circle cx="386" cy="234" r="30" fill="url(#a)"/>
<circle cx="448" cy="296" r="30" fill="#22395F"/>
<circle cx="386" cy="358" r="30" fill="#22395F"/>
<circle cx="324" cy="296" r="30" fill="url(#a)" opacity=".5"/>
<circle cx="448" cy="296" r="11" fill="#3A5480"/>
<circle cx="386" cy="358" r="11" fill="#3A5480"/>
<rect x="164" y="196" width="90" height="10" rx="5" fill="#FFFFFF" opacity=".12"/>
</svg>
