<svg xmlns="http://www.w3.org/2000/svg" width="600" height="600" viewBox="0 0 600 600" preserveAspectRatio="xMidYMid meet" role="img" aria-label="Astronaut galaxy projector lamp, lit">
<title>Astronaut galaxy projector lamp, lit</title>
<defs><radialGradient id="8c53g0"><stop offset="0" stop-color="#FFC857" stop-opacity="0.75"/><stop offset="1" stop-color="#FFC857" stop-opacity="0"/></radialGradient><radialGradient id="8c53g1"><stop offset="0" stop-color="#ED1857" stop-opacity="0.75"/><stop offset="1" stop-color="#ED1857" stop-opacity="0"/></radialGradient><radialGradient id="8c53g2"><stop offset="0" stop-color="#F59E0B" stop-opacity="0.75"/><stop offset="1" stop-color="#F59E0B" stop-opacity="0"/></radialGradient><radialGradient id="8c53g3"><stop offset="0" stop-color="#22A55B" stop-opacity="0.75"/><stop offset="1" stop-color="#22A55B" stop-opacity="0"/></radialGradient><radialGradient id="8c53g4"><stop offset="0" stop-color="#2F7DE1" stop-opacity="0.75"/><stop offset="1" stop-color="#2F7DE1" stop-opacity="0"/></radialGradient><radialGradient id="8c53g5"><stop offset="0" stop-color="#9B4DE0" stop-opacity="0.75"/><stop offset="1" stop-color="#9B4DE0" stop-opacity="0"/></radialGradient><radialGradient id="8c53g6"><stop offset="0" stop-color="#FF6B3D" stop-opacity="0.75"/><stop offset="1" stop-color="#FF6B3D" stop-opacity="0"/></radialGradient><radialGradient id="8c53bg" cx="50%" cy="38%" r="78%"><stop offset="0" stop-color="#6E1133"/><stop offset="1" stop-color="#2A0312"/></radialGradient><linearGradient id="8c53flame" x1="0" y1="1" x2="0" y2="0"><stop offset="0" stop-color="#F59E0B"/><stop offset="0.6" stop-color="#FFD166"/><stop offset="1" stop-color="#FFF4CF"/></linearGradient><linearGradient id="8c53diya" x1="0" y1="0" x2="0" y2="1"><stop offset="0" stop-color="#ED1857"/><stop offset="1" stop-color="#90002A"/></linearGradient><linearGradient id="8c53gold" x1="0" y1="0" x2="1" y2="1"><stop offset="0" stop-color="#FFD166"/><stop offset="1" stop-color="#F59E0B"/></linearGradient><linearGradient id="8c53pw" x1="0" y1="0" x2="1" y2="1"><stop offset="0" stop-color="#ED1857"/><stop offset="1" stop-color="#90002A"/></linearGradient><radialGradient id="8c53halo"><stop offset="0" stop-color="#FFD166" stop-opacity="0.85"/><stop offset="0.45" stop-color="#ED1857" stop-opacity="0.35"/><stop offset="1" stop-color="#9B4DE0" stop-opacity="0"/></radialGradient><linearGradient id="8c53visor" x1="0" y1="0" x2="1" y2="1"><stop offset="0" stop-color="#9B4DE0"/><stop offset="0.5" stop-color="#ED1857"/><stop offset="1" stop-color="#4A041C"/></linearGradient></defs><rect width="600" height="600" fill="url(#8c53bg)"/><path d="M564,552 L565.6,555.8 L569.7,556.1 L566.6,558.9 L567.5,562.9 L564,560.8 L560.5,562.9 L561.4,558.9 L558.3,556.1 L562.4,555.8 Z" fill="#FFE7A8" opacity="0.95"/><circle cx="393" cy="245" r="3.7" fill="#FFFFFF" opacity="0.47"/><circle cx="548" cy="445" r="2" fill="#FF9BBB" opacity="0.90"/><path d="M536,120 L538.4,125.7 L544.6,126.2 L539.9,130.3 L541.3,136.3 L536,133.1 L530.7,136.3 L532.1,130.3 L527.4,126.2 L533.6,125.7 Z" fill="#C9A7FF" opacity="0.71"/><circle cx="198" cy="559" r="3.4" fill="#FFE7A8" opacity="0.70"/><circle cx="519" cy="303" r="2.6" fill="#FFFFFF" opacity="0.70"/><path d="M188,98 L189.6,101.8 L193.7,102.1 L190.6,104.9 L191.5,108.9 L188,106.8 L184.5,108.9 L185.4,104.9 L182.3,102.1 L186.4,101.8 Z" fill="#FF9BBB" opacity="0.87"/><circle cx="553" cy="537" r="2.5" fill="#C9A7FF" opacity="0.88"/><circle cx="38" cy="315" r="3.1" fill="#FFE7A8" opacity="0.76"/><path d="M276,343 L277.4,346.1 L280.8,346.5 L278.2,348.7 L278.9,352 L276,350.3 L273.1,352 L273.8,348.7 L271.2,346.5 L274.6,346.1 Z" fill="#FFFFFF" opacity="0.75"/><circle cx="469" cy="61" r="1.6" fill="#FF9BBB" opacity="0.59"/><circle cx="116" cy="76" r="3.1" fill="#C9A7FF" opacity="0.68"/><path d="M456,167 L459,173.9 L466.5,174.6 L460.8,179.6 L462.5,186.9 L456,183.1 L449.5,186.9 L451.2,179.6 L445.5,174.6 L453,173.9 Z" fill="#FFE7A8" opacity="0.86"/><circle cx="463" cy="89" r="1.8" fill="#FFFFFF" opacity="0.80"/><circle cx="499" cy="358" r="2.9" fill="#FF9BBB" opacity="0.43"/><path d="M497,440 L498.6,443.8 L502.7,444.1 L499.6,446.9 L500.5,450.9 L497,448.8 L493.5,450.9 L494.4,446.9 L491.3,444.1 L495.4,443.8 Z" fill="#C9A7FF" opacity="0.60"/><circle cx="545" cy="291" r="2" fill="#FFE7A8" opacity="0.43"/><circle cx="104" cy="342" r="2.9" fill="#FFFFFF" opacity="0.47"/><path d="M54,217 L56.2,222 L61.6,222.5 L57.5,226.1 L58.7,231.5 L54,228.7 L49.3,231.5 L50.5,226.1 L46.4,222.5 L51.8,222 Z" fill="#FF9BBB" opacity="0.81"/><circle cx="481" cy="56" r="2.2" fill="#C9A7FF" opacity="0.75"/><circle cx="142" cy="427" r="1.6" fill="#FFE7A8" opacity="0.68"/><path d="M331,492 L333.2,497 L338.6,497.5 L334.5,501.1 L335.7,506.5 L331,503.7 L326.3,506.5 L327.5,501.1 L323.4,497.5 L328.8,497 Z" fill="#FFFFFF" opacity="0.56"/><circle cx="254" cy="291" r="3.1" fill="#FF9BBB" opacity="0.59"/><circle cx="228" cy="420" r="3.6" fill="#C9A7FF" opacity="0.75"/><path d="M315,250 L318,256.9 L325.5,257.6 L319.8,262.6 L321.5,269.9 L315,266.1 L308.5,269.9 L310.2,262.6 L304.5,257.6 L312,256.9 Z" fill="#FFE7A8" opacity="0.73"/><circle cx="217" cy="245" r="1.6" fill="#FFFFFF" opacity="0.60"/><path d="M353,132 L356,138.9 L363.5,139.6 L357.8,144.6 L359.5,151.9 L353,148.1 L346.5,151.9 L348.2,144.6 L342.5,139.6 L350,138.9 Z" fill="#FFE7A8" opacity="0.70"/><circle cx="450" cy="154" r="3" fill="#FFFFFF" opacity="0.66"/><circle cx="257" cy="201" r="2.5" fill="#FF9BBB" opacity="0.77"/><path d="M242,237 L243.9,241.4 L248.7,241.8 L245.1,245 L246.1,249.7 L242,247.2 L237.9,249.7 L238.9,245 L235.3,241.8 L240.1,241.4 Z" fill="#C9A7FF" opacity="0.84"/><circle cx="176" cy="275" r="3.4" fill="#FFE7A8" opacity="0.73"/><circle cx="429" cy="206" r="4" fill="#FFFFFF" opacity="0.49"/><path d="M104,118 L105.4,121.1 L108.8,121.5 L106.2,123.7 L106.9,127 L104,125.3 L101.1,127 L101.8,123.7 L99.2,121.5 L102.6,121.1 Z" fill="#FF9BBB" opacity="0.56"/><circle cx="385" cy="171" r="3.2" fill="#C9A7FF" opacity="0.80"/><circle cx="392" cy="77" r="4" fill="#FFE7A8" opacity="0.58"/><path d="M234,187 L237,193.9 L244.5,194.6 L238.8,199.6 L240.5,206.9 L234,203.1 L227.5,206.9 L229.2,199.6 L223.5,194.6 L231,193.9 Z" fill="#FFFFFF" opacity="0.81"/><circle cx="395" cy="72" r="3.1" fill="#FF9BBB" opacity="0.81"/><circle cx="405" cy="242" r="1.9" fill="#C9A7FF" opacity="0.54"/><path d="M472,143 L473.6,146.8 L477.7,147.1 L474.6,149.9 L475.5,153.9 L472,151.8 L468.5,153.9 L469.4,149.9 L466.3,147.1 L470.4,146.8 Z" fill="#FFE7A8" opacity="0.94"/><circle cx="492" cy="142" r="2.3" fill="#FFFFFF" opacity="0.64"/><circle cx="537" cy="41" r="3.7" fill="#FF9BBB" opacity="0.52"/><path d="M196,259 L197.6,262.8 L201.7,263.1 L198.6,265.9 L199.5,269.9 L196,267.8 L192.5,269.9 L193.4,265.9 L190.3,263.1 L194.4,262.8 Z" fill="#C9A7FF" opacity="0.56"/><circle cx="233" cy="115" r="3.6" fill="#FFE7A8" opacity="0.45"/><circle cx="192" cy="135" r="3.4" fill="#FFFFFF" opacity="0.69"/><path d="M483,180 L484.6,183.8 L488.7,184.1 L485.6,186.9 L486.5,190.9 L483,188.8 L479.5,190.9 L480.4,186.9 L477.3,184.1 L481.4,183.8 Z" fill="#FF9BBB" opacity="0.76"/><circle cx="64" cy="213" r="3.6" fill="#C9A7FF" opacity="0.50"/><circle cx="511" cy="62" r="3" fill="#FFE7A8" opacity="0.60"/><path d="M288,39 L289.9,43.4 L294.7,43.8 L291.1,47 L292.1,51.7 L288,49.2 L283.9,51.7 L284.9,47 L281.3,43.8 L286.1,43.4 Z" fill="#FFFFFF" opacity="0.88"/><circle cx="252" cy="242" r="2.8" fill="#FF9BBB" opacity="0.85"/><circle cx="258" cy="49" r="3.2" fill="#C9A7FF" opacity="0.50"/><path d="M513,207 L514.6,210.8 L518.7,211.1 L515.6,213.9 L516.5,217.9 L513,215.8 L509.5,217.9 L510.4,213.9 L507.3,211.1 L511.4,210.8 Z" fill="#FFE7A8" opacity="0.72"/><circle cx="326" cy="256" r="2.3" fill="#FFFFFF" opacity="0.51"/><circle cx="473" cy="262" r="1.8" fill="#FF9BBB" opacity="0.69"/><path d="M167,69 L169.7,75.3 L176.5,75.9 L171.4,80.4 L172.9,87.1 L167,83.6 L161.1,87.1 L162.6,80.4 L157.5,75.9 L164.3,75.3 Z" fill="#C9A7FF" opacity="0.94"/><circle cx="70" cy="184" r="1.6" fill="#FFE7A8" opacity="0.56"/><circle cx="233" cy="234" r="2.7" fill="#FFFFFF" opacity="0.86"/><path d="M299,110 L300.9,114.4 L305.7,114.8 L302.1,118 L303.1,122.7 L299,120.2 L294.9,122.7 L295.9,118 L292.3,114.8 L297.1,114.4 Z" fill="#FF9BBB" opacity="0.75"/><circle cx="543" cy="56" r="3" fill="#C9A7FF" opacity="0.57"/><circle cx="216" cy="42" r="1.9" fill="#FFE7A8" opacity="0.79"/><path d="M416,242 L417.4,245.1 L420.8,245.5 L418.2,247.7 L418.9,251 L416,249.3 L413.1,251 L413.8,247.7 L411.2,245.5 L414.6,245.1 Z" fill="#FFFFFF" opacity="0.93"/><circle cx="398" cy="169" r="3.3" fill="#FF9BBB" opacity="0.47"/><circle cx="507" cy="69" r="2.7" fill="#C9A7FF" opacity="0.81"/><path d="M268,228 L270.4,233.7 L276.6,234.2 L271.9,238.3 L273.3,244.3 L268,241.1 L262.7,244.3 L264.1,238.3 L259.4,234.2 L265.6,233.7 Z" fill="#FFE7A8" opacity="0.59"/><circle cx="121" cy="179" r="2.3" fill="#FFFFFF" opacity="0.73"/><circle cx="319" cy="45" r="3.2" fill="#FF9BBB" opacity="0.58"/><path d="M435,277 L438,283.9 L445.5,284.6 L439.8,289.6 L441.5,296.9 L435,293.1 L428.5,296.9 L430.2,289.6 L424.5,284.6 L432,283.9 Z" fill="#C9A7FF" opacity="0.68"/><circle cx="429" cy="300" r="2.6" fill="#FFE7A8" opacity="0.71"/><circle cx="527" cy="281" r="3.1" fill="#FFFFFF" opacity="0.61"/><path d="M257,266 L259.7,272.3 L266.5,272.9 L261.4,277.4 L262.9,284.1 L257,280.6 L251.1,284.1 L252.6,277.4 L247.5,272.9 L254.3,272.3 Z" fill="#FF9BBB" opacity="0.63"/><circle cx="343" cy="108" r="2.2" fill="#C9A7FF" opacity="0.42"/><circle cx="175" cy="234" r="3.4" fill="#FFE7A8" opacity="0.85"/><path d="M306,276 L308.7,282.3 L315.5,282.9 L310.4,287.4 L311.9,294.1 L306,290.6 L300.1,294.1 L301.6,287.4 L296.5,282.9 L303.3,282.3 Z" fill="#FFFFFF" opacity="0.68"/><ellipse cx="300" cy="500" rx="114.4" ry="18.7" fill="#1C020B" opacity="0.5"/><rect x="201.2" y="468.8" width="197.6" height="31.2" rx="14.6" fill="url(#8c53pw)"/><rect x="227.2" y="359.6" width="145.6" height="109.2" rx="41.6" fill="#F7F4F5" stroke="#D9CFD3" stroke-width="2"/><rect x="270.9" y="387.7" width="58.2" height="37.4" rx="8.3" fill="#ED1857" opacity="0.85"/><circle cx="285.4" cy="406.4" r="5.2" fill="#FFD166"/><circle cx="312.5" cy="406.4" r="5.2" fill="#FFFFFF"/><circle cx="300" cy="284.7" r="104" fill="#FFFFFF" stroke="#D9CFD3" stroke-width="2.5"/><ellipse cx="300" cy="289.9" rx="70.7" ry="54.1" fill="url(#8c53visor)"/><ellipse cx="274" cy="270.2" rx="18.7" ry="10.4" fill="#FFFFFF" opacity="0.6" transform="rotate(-25 274 270.2)"/><path d="M320.8,288.9 L322.5,292.8 L326.7,293.2 L323.5,296 L324.5,300.2 L320.8,298 L317.1,300.2 L318.1,296 L314.9,293.2 L319.1,292.8 Z" fill="#FFE7A8"/><path d="M335.4,266 L337,269.9 L341.3,270.3 L338.1,273.1 L339,277.3 L335.4,275.1 L331.7,277.3 L332.6,273.1 L329.4,270.3 L333.7,269.9 Z" fill="#FFE7A8"/><path d="M294.8,303.4 L296.5,307.4 L300.7,307.8 L297.5,310.6 L298.5,314.7 L294.8,312.6 L291.1,314.7 L292.1,310.6 L288.9,307.8 L293.1,307.4 Z" fill="#FFE7A8"/><path d="M310.4,257.7 L312.1,261.6 L316.3,262 L313.1,264.8 L314.1,269 L310.4,266.8 L306.7,269 L307.7,264.8 L304.5,262 L308.7,261.6 Z" fill="#FFE7A8"/>
</svg>
