<svg xmlns="http://www.w3.org/2000/svg" width="600" height="600" viewBox="0 0 600 600" preserveAspectRatio="xMidYMid meet" role="img" aria-label="Image unavailable">
  <defs>
    <radialGradient id="nibg" cx="50%" cy="35%" r="80%">
      <stop offset="0" stop-color="#FFFFFF"/>
      <stop offset="1" stop-color="#F1EFEA"/>
    </radialGradient>
    <linearGradient id="nio" x1="0" y1="0" x2="1" y2="1">
      <stop offset="0" stop-color="#FF8A3D"/>
      <stop offset="1" stop-color="#F4511E"/>
    </linearGradient>
  </defs>
  <rect width="600" height="600" fill="url(#nibg)"/>
  <rect x="72" y="72" width="456" height="456" rx="36" fill="none" stroke="#6B7280" stroke-opacity="0.3" stroke-width="4" stroke-dasharray="16 14"/>
  <path d="M132 428l104-108 66 62 84-92 82 138v22a18 18 0 0 1-18 18H150a18 18 0 0 1-18-18Z" fill="#0F2143" opacity="0.08"/>
  <g>
    <path d="M228 210h28l14-22h60l14 22h28a34 34 0 0 1 34 34v104a34 34 0 0 1-34 34H228a34 34 0 0 1-34-34V244a34 34 0 0 1 34-34Z" fill="url(#nio)"/>
    <circle cx="300" cy="298" r="52" fill="#FFFFFF" opacity="0.95"/>
    <circle cx="300" cy="298" r="26" fill="#F4511E" opacity="0.35"/>
    <circle cx="378" cy="244" r="9" fill="#FFFFFF" opacity="0.8"/>
  </g>
  <rect x="216" y="422" width="168" height="14" rx="7" fill="#6B7280" opacity="0.25"/>
  <rect x="252" y="452" width="96" height="12" rx="6" fill="#6B7280" opacity="0.16"/>
</svg>
